# xmcd
#
# Track frame offsets:
#	150
#	16760
#	28840
#	44595
#	57545
#	68610
#	84790
#	102090
#	115832
#	129487
#	150217
#	162465
#	176822
#	192207
#
# Disc length: 2724
#
# Revision: 1
# Processed by: cddbd v1.5.1PL0 Copyright (c) Steve Scherf et al.
# Submitted via: VisiTrax 2.9.5.180 - For more info visit www.synapsa.com
# Normalized: r0:DSETVAR1
#
DISCID=ad0aa20e
DTITLE=Various Artist - Mr. Music Country 10-94
DYEAR=1994
DGENRE=
TTITLE0=Confederate Railroad - Daddy never was the cadillac kind
TTITLE1=Neal McCoy - Wink
TTITLE2=Brother Phelps - Eagle over angel
TTITLE3=Stephanie Davis - Lone star swing
TTITLE4=Shawn Camp - Man, what a woman
TTITLE5=Jimmie Dale Gilmore - I'm so lonesome I could cry
TTITLE6=Tish Hinojosa - Looking for my love in the pouring rain
TTITLE7=Charlie Louvin - Waylon Jennings - Wilie Nelson - Makin' music
TTITLE8=David Ball - Don't think twice
TTITLE9=Iris DeMent - Childhood Memories
TTITLE10=Tracy Lawrence - My second home
TTITLE11=Steve Haggard - Give me good reason
TTITLE12=Mona McCall - You look good in blue
TTITLE13=Bob Woodruff - Hard liquor, cold woman, warm beer
EXTD=
EXTT0=
EXTT1=
EXTT2=
EXTT3=
EXTT4=
EXTT5=
EXTT6=
EXTT7=
EXTT8=
EXTT9=
EXTT10=
EXTT11=
EXTT12=
EXTT13=
PLAYORDER=
